<svg version="1.1" id="Layer_1" xmlns="http://www.w3.org/2000/svg" xmlns:xlink="http://www.w3.org/1999/xlink" x="0px" y="0px"
	 width="100%" viewBox="0 0 512 512" enable-background="new 0 0 512 512" xml:space="preserve">
<path fill="#000000" opacity="1.000000" stroke="none" 
	d="
M513.000000,341.000000 
	C513.000000,398.293396 513.000000,455.586792 513.000000,513.000000 
	C361.978577,513.000000 210.957153,513.000000 59.141766,512.723511 
	C59.390743,511.690369 60.327442,510.619659 61.492977,510.225372 
	C73.174011,506.273682 81.132759,498.252441 85.870026,487.176880 
	C89.122414,479.572876 91.546593,471.601257 89.460953,463.066284 
	C90.835548,462.889984 91.859283,462.917511 92.772476,462.613251 
	C125.871216,451.584473 158.946640,440.485626 192.058167,429.495422 
	C200.961868,426.540131 209.971008,423.902435 218.958679,421.472778 
	C219.881897,422.963959 220.831833,424.063354 221.666550,425.244232 
	C234.439362,443.314423 259.605164,448.080414 279.075745,437.285126 
	C293.820374,429.110046 303.702332,412.002655 301.441986,393.054932 
	C302.730865,392.665405 303.631561,392.310516 304.548523,392.004364 
	C346.349426,378.048187 388.151794,364.096283 430.087891,350.454285 
	C433.579742,354.441254 436.699646,358.375000 440.341187,361.745026 
	C450.424652,371.076630 462.978027,373.748138 475.871643,371.726624 
	C492.787903,369.074341 504.616547,358.953369 511.025299,342.832855 
	C511.324890,342.079346 512.325745,341.604584 513.000000,341.000000 
z"/>
<path fill="#000000" opacity="1.000000" stroke="none" 
	d="
M59.000000,1.000001 
	C210.227905,1.000000 361.455811,1.000000 513.000000,1.000000 
	C513.000000,58.021042 513.000000,115.042671 512.725464,172.869385 
	C508.128265,167.111847 504.697418,159.683990 499.321747,154.142929 
	C480.495300,134.737411 445.354919,138.480942 430.544373,162.928970 
	C429.820251,162.972366 429.460327,163.053146 429.160492,162.953339 
	C395.868195,151.871231 362.593475,140.736084 329.283905,129.706207 
	C319.927490,126.608009 310.469421,123.816826 301.046631,120.479248 
	C301.024170,116.909843 301.135559,113.739914 300.979279,110.583244 
	C300.481659,100.530273 296.236328,91.992912 289.354034,84.964272 
	C277.651184,73.012520 263.221344,68.497368 246.936249,72.189880 
	C234.850098,74.930328 224.924057,81.458443 218.581116,92.793793 
	C175.511383,78.454544 132.801849,64.205261 90.052055,49.503571 
	C89.677376,45.477180 89.535629,41.872704 88.975647,38.334419 
	C86.342918,21.699440 77.596405,9.887382 61.573074,3.807105 
	C60.512966,3.404831 59.848495,1.959938 59.000000,1.000001 
z"/>
<path fill="#000000" opacity="1.000000" stroke="none" 
	d="
M1.000003,314.000000 
	C1.000000,276.312439 1.000000,238.624878 1.273827,200.129532 
	C4.296639,204.015411 6.891832,208.807571 9.822906,213.384644 
	C19.325602,228.223740 41.515636,234.037735 57.561783,229.292770 
	C69.262367,225.832825 77.186440,218.438843 84.135147,209.398499 
	C85.537781,210.144302 86.767754,210.548340 87.995224,210.959824 
	C124.813873,223.302582 161.624359,235.669815 198.460434,247.960312 
	C203.219635,249.548233 208.111130,250.739624 212.954163,252.510834 
	C212.957672,255.900711 212.948380,258.894470 212.546570,261.936768 
	C185.433624,270.825134 158.694366,279.608521 131.999878,288.525940 
	C115.950668,293.887268 99.971237,299.457489 83.625381,304.844666 
	C72.590378,286.120178 52.046268,279.547913 33.341766,284.409912 
	C18.585579,288.245575 8.753282,298.145569 2.967611,312.171906 
	C2.657433,312.923859 1.671414,313.397064 1.000003,314.000000 
z"/>
<path fill="#000000" opacity="1.000000" stroke="none" 
	d="
M1.000003,173.000000 
	C1.000000,135.312439 1.000000,97.624878 1.271702,59.136696 
	C2.346283,59.526798 3.455741,60.612228 3.906287,61.923973 
	C11.256622,83.324036 36.994568,94.882065 58.416035,87.785789 
	C62.351902,86.481964 66.117355,84.663681 70.083862,83.393753 
	C91.425827,104.923187 112.645393,126.141747 134.421417,147.916718 
	C123.743317,151.479446 113.944183,154.850693 104.075912,158.005737 
	C97.463837,160.119736 90.753662,161.926910 83.954140,163.557922 
	C83.261536,162.644928 82.629623,162.097794 82.153435,161.438202 
	C70.397835,145.155243 55.525444,139.781555 38.134590,142.287384 
	C21.186691,144.729385 9.398360,155.060623 2.971826,171.165192 
	C2.671000,171.919052 1.673206,172.394760 1.000003,173.000000 
z"/>
<path fill="#000000" opacity="1.000000" stroke="none" 
	d="
M1.000002,455.000000 
	C1.000000,417.312439 1.000000,379.624878 1.274552,341.131439 
	C5.551610,347.514984 8.851257,354.982635 15.152252,360.864502 
	C27.292646,372.197266 48.146732,375.036377 62.680859,368.782806 
	C71.660187,364.919312 78.101028,358.297668 84.352539,350.920044 
	C100.796310,356.228699 116.841629,361.473022 133.695221,366.981537 
	C123.835335,376.778992 114.724190,385.753479 105.702240,394.816803 
	C93.752007,406.821777 81.871498,418.896149 69.589493,430.973572 
	C67.335831,430.078522 65.478233,429.096466 63.567471,428.231934 
	C54.064011,423.932129 44.078335,422.571045 34.089767,425.435577 
	C19.663092,429.572845 8.724142,438.073822 3.531392,452.809601 
	C3.209318,453.723602 1.867427,454.278198 1.000002,455.000000 
z"/>
<path fill="#4FC0E8" opacity="1.000000" stroke="none" 
	d="
M69.961464,83.082870 
	C66.117355,84.663681 62.351902,86.481964 58.416035,87.785789 
	C36.994568,94.882065 11.256622,83.324036 3.906287,61.923973 
	C3.455741,60.612228 2.346283,59.526798 1.271702,58.668037 
	C1.000000,50.312435 1.000000,41.624874 1.281826,32.806602 
	C1.941993,32.355602 2.538432,32.105400 2.667155,31.704878 
	C7.304386,17.276062 16.676653,7.570924 31.165321,2.863899 
	C31.599560,2.722825 31.728642,1.642443 32.000000,1.000000 
	C40.687565,1.000000 49.375126,1.000000 58.531345,1.000001 
	C59.848495,1.959938 60.512966,3.404831 61.573074,3.807105 
	C77.596405,9.887382 86.342918,21.699440 88.975647,38.334419 
	C89.535629,41.872704 89.677376,45.477180 89.804985,49.780716 
	C87.721153,56.277935 85.844147,62.045609 83.676376,67.960876 
	C83.277611,68.725952 83.169609,69.343430 82.722687,70.031166 
	C78.242989,74.428566 74.102226,78.755722 69.961464,83.082870 
M28.735699,49.336376 
	C33.156506,55.412685 39.701965,55.352623 43.797600,49.435349 
	C45.297993,47.267612 47.382572,45.424198 49.458721,43.753525 
	C52.673130,41.166908 54.743130,38.349297 53.496731,33.941902 
	C52.322952,29.791315 49.498718,28.423300 45.430969,27.911404 
	C36.292526,26.761398 25.191172,35.991371 28.735699,49.336376 
z"/>
<path fill="#4FC0E8" opacity="1.000000" stroke="none" 
	d="
M1.000002,455.468658 
	C1.867427,454.278198 3.209318,453.723602 3.531392,452.809601 
	C8.724142,438.073822 19.663092,429.572845 34.089767,425.435577 
	C44.078335,422.571045 54.064011,423.932129 63.567471,428.231934 
	C65.478233,429.096466 67.335831,430.078522 69.661331,431.311279 
	C74.436996,435.755341 78.769272,439.894501 83.056213,444.340179 
	C83.027702,445.059235 83.044533,445.471771 83.194458,446.217743 
	C85.237885,452.072571 87.148209,457.593994 89.058540,463.115387 
	C91.546593,471.601257 89.122414,479.572876 85.870026,487.176880 
	C81.132759,498.252441 73.174011,506.273682 61.492977,510.225372 
	C60.327442,510.619659 59.390743,511.690369 58.673912,512.723511 
	C50.312435,513.000000 41.624874,513.000000 32.806602,512.717773 
	C32.355343,512.057495 32.104477,511.460327 31.704193,511.333038 
	C17.238411,506.732391 7.605465,497.286652 2.862633,482.834076 
	C2.719892,482.399139 1.641923,482.271118 0.999999,482.000000 
	C1.000000,473.312439 1.000000,464.624878 1.000002,455.468658 
M30.988712,475.475159 
	C36.190147,478.959076 40.804573,477.934662 44.060398,472.958252 
	C45.329201,471.018951 47.158958,469.278473 49.089432,467.974976 
	C53.226006,465.181915 55.017612,460.962006 53.343613,456.871521 
	C51.612247,452.640869 46.926983,450.320099 42.245331,451.469666 
	C40.634876,451.865112 39.003323,452.332733 37.516960,453.048767 
	C30.124598,456.609985 24.116453,467.581451 30.988712,475.475159 
z"/>
<path fill="#4FC0E8" opacity="1.000000" stroke="none" 
	d="
M83.954086,350.855682 
	C78.101028,358.297668 71.660187,364.919312 62.680859,368.782806 
	C48.146732,375.036377 27.292646,372.197266 15.152252,360.864502 
	C8.851257,354.982635 5.551610,347.514984 1.274552,340.662781 
	C1.000000,332.312439 1.000000,323.624878 1.000003,314.468658 
	C1.671414,313.397064 2.657433,312.923859 2.967611,312.171906 
	C8.753282,298.145569 18.585579,288.245575 33.341766,284.409912 
	C52.046268,279.547913 72.590378,286.120178 83.651093,305.226227 
	C86.028412,311.182770 88.044937,316.668610 90.044518,322.591736 
	C90.063828,326.012024 90.100075,328.995056 89.892395,332.258423 
	C87.750343,338.644379 85.852219,344.750031 83.954086,350.855682 
M52.467144,323.754944 
	C54.667717,320.242554 54.524296,316.813354 51.955471,313.575592 
	C49.272087,310.193420 45.694580,309.433685 41.637081,310.341034 
	C32.746994,312.329010 27.763208,318.905640 27.936157,327.968781 
	C28.009911,331.833771 29.777897,334.561340 33.161335,335.610718 
	C36.746609,336.722656 41.232071,336.673096 43.003262,332.991333 
	C45.050873,328.734955 48.541241,326.742096 52.467144,323.754944 
z"/>
<path fill="#4FC0E8" opacity="1.000000" stroke="none" 
	d="
M1.000003,173.468658 
	C1.673206,172.394760 2.671000,171.919052 2.971826,171.165192 
	C9.398360,155.060623 21.186691,144.729385 38.134590,142.287384 
	C55.525444,139.781555 70.397835,145.155243 82.153435,161.438202 
	C82.629623,162.097794 83.261536,162.644928 83.995262,163.925354 
	C86.146378,170.416367 88.123123,176.226486 90.056015,182.481094 
	C90.040733,185.604736 90.069305,188.283875 89.857635,191.246613 
	C87.732040,197.373566 85.846680,203.216888 83.961327,209.060226 
	C77.186440,218.438843 69.262367,225.832825 57.561783,229.292770 
	C41.515636,234.037735 19.325602,228.223740 9.822906,213.384644 
	C6.891832,208.807571 4.296639,204.015411 1.273827,199.660873 
	C1.000000,191.312439 1.000000,182.624863 1.000003,173.468658 
M53.229687,174.549881 
	C49.235859,168.743393 45.696621,167.546295 39.179852,169.797684 
	C31.782177,172.353394 27.735067,178.383377 27.966194,186.247757 
	C28.100979,190.833969 30.018469,194.035507 34.681244,194.820404 
	C39.278793,195.594315 42.798519,194.017288 44.723907,189.392456 
	C45.283524,188.048248 46.435997,186.509613 47.701942,185.978653 
	C52.642540,183.906509 54.399559,180.359100 53.229687,174.549881 
z"/>
<path fill="#4FC0E8" opacity="1.000000" stroke="none" 
	d="
M430.936584,162.882050 
	C445.354919,138.480942 480.495300,134.737411 499.321747,154.142929 
	C504.697418,159.683990 508.128265,167.111847 512.725464,173.337250 
	C513.000000,181.687561 513.000000,190.375137 512.723877,199.195770 
	C511.960968,200.118317 511.343109,200.855881 511.006592,201.704941 
	C503.873932,219.701324 488.867523,230.542282 469.007263,231.026443 
	C459.936554,231.247589 451.875000,228.137894 443.944824,223.749817 
	C439.542633,219.270111 435.234833,215.115570 430.955750,210.638245 
	C430.666046,209.818146 430.347565,209.320862 429.999756,208.456451 
	C427.946838,202.381149 425.923248,196.672958 423.943726,190.519989 
	C423.947662,187.391769 423.907532,184.708359 424.111633,181.744720 
	C426.549438,175.270370 428.743011,169.076202 430.936584,162.882050 
M452.981049,191.373444 
	C458.920837,196.839340 464.401581,195.980484 468.437439,189.206085 
	C469.347565,187.678406 471.463501,186.904892 472.532227,185.428055 
	C474.462036,182.761337 477.517120,179.712784 477.314453,177.034637 
	C477.110870,174.343719 473.974731,170.563309 471.300934,169.638153 
	C465.360443,167.582718 459.731781,169.807068 455.802277,174.814896 
	C452.149475,179.470062 449.153107,184.529022 452.981049,191.373444 
z"/>
<path fill="#4FC0E8" opacity="1.000000" stroke="none" 
	d="
M513.000000,340.531342 
	C512.325745,341.604584 511.324890,342.079346 511.025299,342.832855 
	C504.616547,358.953369 492.787903,369.074341 475.871643,371.726624 
	C462.978027,373.748138 450.424652,371.076630 440.341187,361.745026 
	C436.699646,358.375000 433.579742,354.441254 430.080444,350.065063 
	C427.923950,343.564911 425.908813,337.764465 423.940002,331.519836 
	C423.958160,328.396027 423.930023,325.716461 424.142151,322.753235 
	C426.266357,316.709290 428.150299,310.948975 430.323975,305.040741 
	C430.717621,304.274353 430.821472,303.655823 431.250458,302.941345 
	C435.729340,298.538849 439.883087,294.232391 444.385895,289.849792 
	C451.755005,287.515808 458.661377,283.846710 465.816925,283.270172 
	C485.618713,281.674683 504.323547,292.801422 511.138123,313.141510 
	C511.286987,313.585724 512.358765,313.720734 513.000000,314.000000 
	C513.000000,322.687561 513.000000,331.375122 513.000000,340.531342 
M459.630371,336.003845 
	C462.243195,334.616455 465.036560,333.479950 467.415833,331.767944 
	C469.596680,330.198730 471.267944,327.939697 473.276184,326.107941 
	C476.188141,323.451996 478.922577,320.849457 477.266449,316.301025 
	C475.695160,311.985565 472.639832,310.029114 468.147919,310.005096 
	C460.630432,309.964935 454.032745,315.379730 451.668396,323.576660 
	C449.912201,329.665161 452.498871,334.150177 459.630371,336.003845 
z"/>
<path fill="#000000" opacity="1.000000" stroke="none" 
	d="
M513.000000,313.531342 
	C512.358765,313.720734 511.286987,313.585724 511.138123,313.141510 
	C504.323547,292.801422 485.618713,281.674683 465.816925,283.270172 
	C458.661377,283.846710 451.755005,287.515808 444.266357,289.537292 
	C433.081024,278.649445 422.364319,267.997955 410.351837,256.058594 
	C421.879333,245.114105 432.959259,234.594559 444.039185,224.074997 
	C451.875000,228.137894 459.936554,231.247589 469.007263,231.026443 
	C488.867523,230.542282 503.873932,219.701324 511.006592,201.704941 
	C511.343109,200.855881 511.960968,200.118317 512.723877,199.664413 
	C513.000000,237.687561 513.000000,275.375122 513.000000,313.531342 
z"/>
<path fill="#000000" opacity="1.000000" stroke="none" 
	d="
M0.999999,482.468658 
	C1.641923,482.271118 2.719892,482.399139 2.862633,482.834076 
	C7.605465,497.286652 17.238411,506.732391 31.704193,511.333038 
	C32.104477,511.460327 32.355343,512.057495 32.337948,512.717773 
	C21.740145,513.000000 11.480290,513.000000 1.000000,513.000000 
	C1.000000,502.980194 1.000000,492.958740 0.999999,482.468658 
z"/>
<path fill="#000000" opacity="1.000000" stroke="none" 
	d="
M31.531342,1.000000 
	C31.728642,1.642443 31.599560,2.722825 31.165321,2.863899 
	C16.676653,7.570924 7.304386,17.276062 2.667155,31.704878 
	C2.538432,32.105400 1.941993,32.355602 1.281826,32.337952 
	C1.000000,21.740147 1.000000,11.480293 1.000000,1.000000 
	C11.019819,1.000000 21.041252,1.000000 31.531342,1.000000 
z"/>
<path fill="#4FC0E8" opacity="1.000000" stroke="none" 
	d="
M301.061401,393.112274 
	C303.702332,412.002655 293.820374,429.110046 279.075745,437.285126 
	C259.605164,448.080414 234.439362,443.314423 221.666550,425.244232 
	C220.831833,424.063354 219.881897,422.963959 218.897949,421.113556 
	C216.853836,414.562103 214.897324,408.723755 212.954941,402.489166 
	C212.959579,399.099976 212.950089,396.106995 213.019775,392.723999 
	C215.043594,386.515259 216.988205,380.696533 219.078323,374.564941 
	C220.657730,372.490906 222.096069,370.733337 223.524841,368.968048 
	C231.078979,359.634705 241.036911,355.042664 252.838440,353.988678 
	C262.883942,353.091583 272.216949,355.306335 281.094910,360.471252 
	C285.748627,365.189514 290.291565,369.602478 294.909424,374.227905 
	C294.984344,374.440430 295.059143,374.884827 295.110413,375.249695 
	C297.128265,381.447113 299.094849,387.279694 301.061401,393.112274 
M254.702805,381.000610 
	C246.797913,382.010345 241.739212,386.729034 239.801407,394.900513 
	C238.527817,400.271088 240.498337,404.638184 244.988037,406.395203 
	C249.256409,408.065674 253.461990,406.177094 256.243622,401.536926 
	C257.039276,400.209686 258.050720,398.736237 259.345215,398.034515 
	C263.456512,395.805847 266.548920,393.000580 265.664948,387.908722 
	C264.927216,383.659515 260.957581,381.145203 254.702805,381.000610 
z"/>
<path fill="#3AADD9" opacity="1.000000" stroke="none" 
	d="
M301.442017,393.054932 
	C299.094849,387.279694 297.128265,381.447113 295.502899,375.297913 
	C296.176697,374.976135 296.537109,375.054291 296.837982,374.953949 
	C328.200500,364.495026 359.573273,354.066589 390.908813,343.527344 
	C401.951050,339.813446 412.901398,335.826355 423.893677,331.964020 
	C425.908813,337.764465 427.923950,343.564911 429.946533,349.754608 
	C388.151794,364.096283 346.349426,378.048187 304.548523,392.004364 
	C303.631561,392.310516 302.730865,392.665405 301.442017,393.054932 
z"/>
<path fill="#3AADD9" opacity="1.000000" stroke="none" 
	d="
M212.940811,402.885376 
	C214.897324,408.723755 216.853836,414.562103 218.871048,420.759705 
	C209.971008,423.902435 200.961868,426.540131 192.058167,429.495422 
	C158.946640,440.485626 125.871216,451.584473 92.772476,462.613251 
	C91.859283,462.917511 90.835548,462.889984 89.460953,463.066284 
	C87.148209,457.593994 85.237885,452.072571 83.576363,446.255493 
	C114.720589,435.639496 145.614487,425.314606 176.512177,415.001129 
	C188.650665,410.949371 200.797684,406.923187 212.940811,402.885376 
z"/>
<path fill="#4FC0E8" opacity="1.000000" stroke="none" 
	d="
M218.941299,92.883751 
	C224.924057,81.458443 234.850098,74.930328 246.936249,72.189880 
	C263.221344,68.497368 277.651184,73.012520 289.354034,84.964272 
	C296.236328,91.992912 300.481659,100.530273 300.979279,110.583244 
	C301.135559,113.739914 301.024170,116.909843 300.966919,120.869049 
	C298.951965,127.481354 297.005371,133.298309 295.021301,139.337616 
	C294.983826,139.559967 294.833862,139.985138 294.528381,140.098907 
	C289.812195,144.752884 285.401459,149.293076 280.621246,153.910980 
	C269.975769,160.034149 259.027924,161.360275 247.391418,159.133682 
	C234.277496,156.624390 225.017914,148.968567 217.954605,137.719360 
	C216.277313,131.850830 214.609070,126.368240 212.951874,120.488129 
	C212.955383,117.098419 212.947876,114.106239 212.976776,110.713577 
	C214.989227,104.503319 216.965271,98.693535 218.941299,92.883751 
M246.361053,101.772369 
	C244.044968,105.639053 241.177597,109.291840 239.570648,113.433655 
	C238.019165,117.432510 241.271561,122.497803 245.159897,123.754097 
	C249.469040,125.146355 253.853287,123.256302 256.309967,119.446709 
	C257.470917,117.646408 259.186462,116.019302 261.001007,114.863808 
	C264.639679,112.546745 266.396454,109.461975 265.512360,105.271408 
	C264.590240,100.900505 261.683990,97.887512 257.197113,98.206848 
	C253.732635,98.453423 250.378708,100.253586 246.361053,101.772369 
z"/>
<path fill="#3AADD9" opacity="1.000000" stroke="none" 
	d="
M295.058777,139.115265 
	C297.005371,133.298309 298.951965,127.481354 300.978271,121.274597 
	C310.469421,123.816826 319.927490,126.608009 329.283905,129.706207 
	C362.593475,140.736084 395.868195,151.871231 429.160492,162.953339 
	C429.460327,163.053146 429.820251,162.972366 430.544373,162.928970 
	C428.743011,169.076202 426.549438,175.270370 423.773163,181.594666 
	C407.093597,176.301453 391.016235,170.819214 374.895447,165.468018 
	C348.298004,156.639221 321.672455,147.895081 295.058777,139.115265 
z"/>
<path fill="#3AADD9" opacity="1.000000" stroke="none" 
	d="
M218.581116,92.793793 
	C216.965271,98.693535 214.989227,104.503319 212.584167,110.664062 
	C201.127792,107.330467 190.090988,103.673920 179.074890,99.956039 
	C147.367828,89.255058 115.669121,78.529305 83.967140,67.813278 
	C85.844147,62.045609 87.721153,56.277935 89.845230,50.233124 
	C132.801849,64.205261 175.511383,78.454544 218.581116,92.793793 
z"/>
<path fill="#4FC0E8" opacity="1.000000" stroke="none" 
	d="
M212.939087,261.888245 
	C212.948380,258.894470 212.957672,255.900711 213.033600,252.120972 
	C215.046967,245.518707 216.993668,239.702438 218.971558,233.579193 
	C218.983032,232.863052 218.963333,232.453888 219.285507,231.975922 
	C223.764664,227.585526 227.901932,223.263931 232.410187,218.974579 
	C242.126251,214.284927 251.636185,211.291641 262.486542,212.866180 
	C276.750977,214.936157 287.811951,221.276611 295.109985,234.248077 
	C297.127808,240.446732 299.093719,246.280533 301.046082,252.510376 
	C301.041473,255.899521 301.050415,258.892609 301.022827,262.285461 
	C299.010590,268.495697 297.034943,274.306244 294.915955,280.433350 
	C284.973236,297.865326 264.241821,304.450745 246.910019,300.351593 
	C241.820786,299.147980 236.989746,296.852692 231.974457,294.714996 
	C227.660858,289.906738 223.413208,285.441223 219.052673,280.716675 
	C218.631897,280.251923 218.324005,280.046204 218.114563,279.556488 
	C216.455017,273.477753 214.697052,267.682983 212.939087,261.888245 
M242.932983,246.575836 
	C241.858368,249.140137 240.481812,251.624100 239.773605,254.285889 
	C238.408035,259.418457 240.721466,263.446198 245.673615,265.291718 
	C249.692352,266.789398 253.379486,265.042755 256.116302,260.830475 
	C257.294800,259.016632 258.954773,257.324829 260.767670,256.152313 
	C265.009918,253.408630 266.786224,249.753738 265.318970,245.740082 
	C263.505798,240.780136 259.321167,238.097107 254.390747,239.839096 
	C250.496323,241.215057 247.073898,243.926849 242.932983,246.575836 
z"/>
<path fill="#3AADD9" opacity="1.000000" stroke="none" 
	d="
M218.940369,233.886169 
	C216.993668,239.702438 215.046967,245.518707 213.020798,251.724838 
	C208.111130,250.739624 203.219635,249.548233 198.460434,247.960312 
	C161.624359,235.669815 124.813873,223.302582 87.995224,210.959824 
	C86.767754,210.548340 85.537781,210.144302 84.135147,209.398499 
	C85.846680,203.216888 87.732040,197.373566 90.238182,191.277588 
	C109.872353,197.496002 128.857819,204.050613 147.906204,210.416931 
	C171.557053,218.321426 195.259949,226.070160 218.940369,233.886169 
z"/>
<path fill="#3AADD9" opacity="1.000000" stroke="none" 
	d="
M212.546570,261.936768 
	C214.697052,267.682983 216.455017,273.477753 217.720215,279.625824 
	C216.895477,279.995209 216.538589,279.936584 216.235046,280.037842 
	C174.174652,294.069122 132.118134,308.112030 90.061447,322.154449 
	C88.044937,316.668610 86.028412,311.182770 83.986168,305.315369 
	C99.971237,299.457489 115.950668,293.887268 131.999878,288.525940 
	C158.694366,279.608521 185.433624,270.825134 212.546570,261.936768 
z"/>
<path fill="#3AADD9" opacity="1.000000" stroke="none" 
	d="
M232.039215,218.942322 
	C227.901932,223.263931 223.764664,227.585526 218.970612,231.857239 
	C198.414688,211.910263 178.105530,192.398880 158.833588,171.911819 
	C151.867630,164.506638 145.837021,161.712128 136.798889,166.901215 
	C134.458130,168.245117 131.581055,168.652359 128.953537,169.499786 
	C116.001717,173.676880 103.050980,177.857315 90.099869,182.036591 
	C88.123123,176.226486 86.146378,170.416367 84.128502,164.238815 
	C90.753662,161.926910 97.463837,160.119736 104.075912,158.005737 
	C113.944183,154.850693 123.743317,151.479446 134.421417,147.916718 
	C112.645393,126.141747 91.425827,104.923187 70.083862,83.393753 
	C74.102226,78.755722 78.242989,74.428566 83.037292,70.148438 
	C106.973907,93.504036 130.256973,116.812630 153.378067,139.959061 
	C165.895798,135.871597 178.034836,131.863464 190.204407,127.950279 
	C197.759293,125.520973 205.360458,123.235626 212.940842,120.885651 
	C214.609070,126.368240 216.277313,131.850830 217.591766,137.806366 
	C201.126343,143.728775 185.014694,149.178238 168.153030,154.881393 
	C173.714767,160.361008 178.716324,165.203735 183.624115,170.139679 
	C199.780762,186.389053 215.903473,202.672180 232.039215,218.942322 
z"/>
<path fill="#3AADD9" opacity="1.000000" stroke="none" 
	d="
M219.165558,280.975677 
	C223.413208,285.441223 227.660858,289.906738 231.857315,295.030029 
	C210.900894,316.570648 189.995682,337.453430 168.697891,358.728394 
	C178.554199,361.997498 187.622650,365.070587 196.735123,368.007141 
	C204.106873,370.382690 211.531601,372.593750 218.932831,374.877808 
	C216.988205,380.696533 215.043594,386.515259 212.617432,392.675171 
	C211.165604,392.890045 210.143280,392.919159 209.232742,392.614319 
	C192.037613,386.857208 174.838013,381.112122 157.688202,375.222260 
	C154.781723,374.224060 152.852783,374.333649 150.533005,376.810883 
	C143.830597,383.968140 136.755722,390.777771 129.796463,397.693054 
	C114.241341,413.149841 98.667664,428.587952 83.101547,444.033661 
	C78.769272,439.894501 74.436996,435.755341 70.032875,431.278442 
	C81.871498,418.896149 93.752007,406.821777 105.702240,394.816803 
	C114.724190,385.753479 123.835335,376.778992 133.695221,366.981537 
	C116.841629,361.473022 100.796310,356.228699 84.352539,350.920044 
	C85.852219,344.750031 87.750343,338.644379 90.230545,332.407959 
	C109.029716,338.482208 127.249763,344.678589 145.460312,350.902740 
	C147.858154,351.722290 149.499603,351.167786 151.365646,349.254181 
	C161.464005,338.898224 171.785416,328.760223 181.985489,318.502899 
	C194.401932,306.016785 206.774170,293.486725 219.165558,280.975677 
z"/>
<path fill="#000000" opacity="1.000000" stroke="none" 
	d="
M212.951874,120.488129 
	C205.360458,123.235626 197.759293,125.520973 190.204407,127.950279 
	C178.034836,131.863464 165.895798,135.871597 153.378067,139.959061 
	C130.256973,116.812630 106.973907,93.504036 83.376221,70.078186 
	C83.169609,69.343430 83.277611,68.725952 83.676376,67.960876 
	C115.669121,78.529305 147.367828,89.255058 179.074890,99.956039 
	C190.090988,103.673920 201.127792,107.330467 212.547760,111.064545 
	C212.947876,114.106239 212.955383,117.098419 212.951874,120.488129 
z"/>
<path fill="#66D4F1" opacity="1.000000" stroke="none" 
	d="
M28.578840,48.958145 
	C25.191172,35.991371 36.292526,26.761398 45.430969,27.911404 
	C49.498718,28.423300 52.322952,29.791315 53.496731,33.941902 
	C54.743130,38.349297 52.673130,41.166908 49.458721,43.753525 
	C47.382572,45.424198 45.297993,47.267612 43.797600,49.435349 
	C39.701965,55.352623 33.156506,55.412685 28.578840,48.958145 
z"/>
<path fill="#000000" opacity="1.000000" stroke="none" 
	d="
M83.056213,444.340179 
	C98.667664,428.587952 114.241341,413.149841 129.796463,397.693054 
	C136.755722,390.777771 143.830597,383.968140 150.533005,376.810883 
	C152.852783,374.333649 154.781723,374.224060 157.688202,375.222260 
	C174.838013,381.112122 192.037613,386.857208 209.232742,392.614319 
	C210.143280,392.919159 211.165604,392.890045 212.538239,393.065186 
	C212.950089,396.106995 212.959579,399.099976 212.954941,402.489166 
	C200.797684,406.923187 188.650665,410.949371 176.512177,415.001129 
	C145.614487,425.314606 114.720589,435.639496 83.443268,445.922058 
	C83.044533,445.471771 83.027702,445.059235 83.056213,444.340179 
z"/>
<path fill="#66D4F1" opacity="1.000000" stroke="none" 
	d="
M30.709175,475.206360 
	C24.116453,467.581451 30.124598,456.609985 37.516960,453.048767 
	C39.003323,452.332733 40.634876,451.865112 42.245331,451.469666 
	C46.926983,450.320099 51.612247,452.640869 53.343613,456.871521 
	C55.017612,460.962006 53.226006,465.181915 49.089432,467.974976 
	C47.158958,469.278473 45.329201,471.018951 44.060398,472.958252 
	C40.804573,477.934662 36.190147,478.959076 30.709175,475.206360 
z"/>
<path fill="#000000" opacity="1.000000" stroke="none" 
	d="
M219.052673,280.716675 
	C206.774170,293.486725 194.401932,306.016785 181.985489,318.502899 
	C171.785416,328.760223 161.464005,338.898224 151.365646,349.254181 
	C149.499603,351.167786 147.858154,351.722290 145.460312,350.902740 
	C127.249763,344.678589 109.029716,338.482208 90.474480,332.127625 
	C90.100075,328.995056 90.063828,326.012024 90.044510,322.591736 
	C132.118134,308.112030 174.174652,294.069122 216.235046,280.037842 
	C216.538589,279.936584 216.895477,279.995209 217.621796,279.909821 
	C218.324005,280.046204 218.631897,280.251923 219.052673,280.716675 
z"/>
<path fill="#66D4F1" opacity="1.000000" stroke="none" 
	d="
M52.229965,324.056335 
	C48.541241,326.742096 45.050873,328.734955 43.003262,332.991333 
	C41.232071,336.673096 36.746609,336.722656 33.161335,335.610718 
	C29.777897,334.561340 28.009911,331.833771 27.936157,327.968781 
	C27.763208,318.905640 32.746994,312.329010 41.637081,310.341034 
	C45.694580,309.433685 49.272087,310.193420 51.955471,313.575592 
	C54.524296,316.813354 54.667717,320.242554 52.229965,324.056335 
z"/>
<path fill="#000000" opacity="1.000000" stroke="none" 
	d="
M90.056015,182.481079 
	C103.050980,177.857315 116.001717,173.676880 128.953537,169.499786 
	C131.581055,168.652359 134.458130,168.245117 136.798889,166.901215 
	C145.837021,161.712128 151.867630,164.506638 158.833588,171.911819 
	C178.105530,192.398880 198.414688,211.910263 218.628723,231.926041 
	C218.963333,232.453888 218.983032,232.863052 218.971558,233.579193 
	C195.259949,226.070160 171.557053,218.321426 147.906204,210.416931 
	C128.857819,204.050613 109.872353,197.496002 90.478424,190.993988 
	C90.069305,188.283875 90.040733,185.604736 90.056015,182.481079 
z"/>
<path fill="#66D4F1" opacity="1.000000" stroke="none" 
	d="
M53.380817,174.903351 
	C54.399559,180.359100 52.642540,183.906509 47.701942,185.978653 
	C46.435997,186.509613 45.283524,188.048248 44.723907,189.392456 
	C42.798519,194.017288 39.278793,195.594315 34.681244,194.820404 
	C30.018469,194.035507 28.100979,190.833969 27.966194,186.247757 
	C27.735067,178.383377 31.782177,172.353394 39.179852,169.797684 
	C45.696621,167.546295 49.235859,168.743393 53.380817,174.903351 
z"/>
<path fill="#3AADD9" opacity="1.000000" stroke="none" 
	d="
M301.059631,252.114319 
	C299.093719,246.280533 297.127808,240.446732 295.502441,234.296692 
	C312.142090,228.652313 328.441223,223.324188 344.218628,218.166611 
	C322.921570,196.497208 301.956146,175.165237 280.990723,153.833282 
	C285.401459,149.293076 289.812195,144.752884 294.670837,140.410126 
	C317.592407,163.085495 340.045746,185.583893 362.599335,207.981339 
	C363.733490,209.107605 366.036194,210.288147 367.286957,209.881485 
	C386.207916,203.729889 405.043823,197.316666 423.899658,190.964752 
	C425.923248,196.672958 427.946838,202.381149 429.616486,208.538834 
	C412.979797,214.464539 396.697052,219.940750 381.200623,225.152527 
	C386.930115,230.924850 392.733246,236.771362 399.609680,243.699188 
	C409.839386,233.005341 420.383179,221.983170 430.927002,210.961014 
	C435.234833,215.115570 439.542633,219.270111 443.944824,223.749832 
	C432.959259,234.594559 421.879333,245.114105 410.351837,256.058594 
	C422.364319,267.997955 433.081024,278.649445 443.917297,289.613403 
	C439.883087,294.232391 435.729340,298.538849 430.942963,302.810608 
	C419.698395,292.055786 409.086487,281.335663 399.061371,271.208313 
	C392.900177,277.298950 387.191345,282.942383 381.467255,288.600891 
	C382.535614,288.971161 384.015533,289.490997 385.499969,289.997498 
	C400.344299,295.062469 415.189362,300.125214 430.034241,305.188629 
	C428.150299,310.948975 426.266357,316.709290 423.765259,322.723083 
	C404.795044,316.668030 386.461517,310.300812 368.049042,304.170715 
	C366.682861,303.715851 364.269806,304.456940 363.159271,305.505829 
	C356.994659,311.328339 351.067200,317.402893 345.086670,323.419098 
	C328.328583,340.277222 311.584259,357.149017 294.834503,374.015411 
	C290.291565,369.602478 285.748627,365.189514 281.406250,360.328888 
	C302.655457,338.823517 323.704102,317.765808 345.069641,296.391083 
	C338.004303,293.936981 331.391296,291.506348 324.691528,289.344543 
	C314.846619,286.167847 304.939758,283.183197 295.059265,280.116760 
	C297.034943,274.306244 299.010590,268.495697 301.424072,262.334229 
	C302.975220,262.201782 304.128479,262.300568 305.195923,262.656647 
	C322.573730,268.453064 339.933228,274.304626 357.326294,280.054657 
	C358.527985,280.451904 360.522278,280.731262 361.202148,280.079224 
	C369.066193,272.537323 376.747650,264.805023 384.630432,256.971405 
	C376.891632,249.275299 369.804199,242.000809 362.391785,235.074066 
	C361.130096,233.895050 358.220551,233.406265 356.503296,233.952805 
	C337.972382,239.850449 319.527802,246.019470 301.059631,252.114319 
z"/>
<path fill="#000000" opacity="1.000000" stroke="none" 
	d="
M423.943726,190.519974 
	C405.043823,197.316666 386.207916,203.729889 367.286957,209.881485 
	C366.036194,210.288147 363.733490,209.107605 362.599335,207.981339 
	C340.045746,185.583893 317.592407,163.085495 294.976318,140.296356 
	C294.833862,139.985138 294.983826,139.559967 295.021301,139.337616 
	C321.672455,147.895081 348.298004,156.639221 374.895447,165.468018 
	C391.016235,170.819214 407.093597,176.301453 423.528931,181.874878 
	C423.907532,184.708359 423.947662,187.391769 423.943726,190.519974 
z"/>
<path fill="#000000" opacity="1.000000" stroke="none" 
	d="
M430.955750,210.638214 
	C420.383179,221.983170 409.839386,233.005341 399.609680,243.699188 
	C392.733246,236.771362 386.930115,230.924850 381.200623,225.152527 
	C396.697052,219.940750 412.979797,214.464539 429.645813,208.905945 
	C430.347565,209.320862 430.666046,209.818146 430.955750,210.638214 
z"/>
<path fill="#66D4F1" opacity="1.000000" stroke="none" 
	d="
M452.746399,191.064163 
	C449.153107,184.529022 452.149475,179.470062 455.802277,174.814896 
	C459.731781,169.807068 465.360443,167.582718 471.300934,169.638153 
	C473.974731,170.563309 477.110870,174.343719 477.314453,177.034637 
	C477.517120,179.712784 474.462036,182.761337 472.532227,185.428055 
	C471.463501,186.904892 469.347565,187.678406 468.437439,189.206085 
	C464.401581,195.980484 458.920837,196.839340 452.746399,191.064163 
z"/>
<path fill="#000000" opacity="1.000000" stroke="none" 
	d="
M294.909424,374.227905 
	C311.584259,357.149017 328.328583,340.277222 345.086670,323.419098 
	C351.067200,317.402893 356.994659,311.328339 363.159271,305.505829 
	C364.269806,304.456940 366.682861,303.715851 368.049042,304.170715 
	C386.461517,310.300812 404.795044,316.668030 423.524963,323.006683 
	C423.930023,325.716461 423.958160,328.396027 423.940002,331.519836 
	C412.901398,335.826355 401.951050,339.813446 390.908813,343.527344 
	C359.573273,354.066589 328.200500,364.495026 296.837982,374.953949 
	C296.537109,375.054291 296.176697,374.976135 295.451599,374.933044 
	C295.059143,374.884827 294.984344,374.440430 294.909424,374.227905 
z"/>
<path fill="#000000" opacity="1.000000" stroke="none" 
	d="
M430.323975,305.040741 
	C415.189362,300.125214 400.344299,295.062469 385.499969,289.997498 
	C384.015533,289.490997 382.535614,288.971161 381.467255,288.600891 
	C387.191345,282.942383 392.900177,277.298950 399.061371,271.208313 
	C409.086487,281.335663 419.698395,292.055786 430.617828,302.906616 
	C430.821472,303.655823 430.717621,304.274353 430.323975,305.040741 
z"/>
<path fill="#66D4F1" opacity="1.000000" stroke="none" 
	d="
M459.226990,335.993347 
	C452.498871,334.150177 449.912201,329.665161 451.668396,323.576660 
	C454.032745,315.379730 460.630432,309.964935 468.147919,310.005096 
	C472.639832,310.029114 475.695160,311.985565 477.266449,316.301025 
	C478.922577,320.849457 476.188141,323.451996 473.276184,326.107941 
	C471.267944,327.939697 469.596680,330.198730 467.415833,331.767944 
	C465.036560,333.479950 462.243195,334.616455 459.226990,335.993347 
z"/>
<path fill="#000000" opacity="1.000000" stroke="none" 
	d="
M294.915955,280.433350 
	C304.939758,283.183197 314.846619,286.167847 324.691528,289.344543 
	C331.391296,291.506348 338.004303,293.936981 345.069641,296.391083 
	C323.704102,317.765808 302.655457,338.823517 281.295502,360.023560 
	C272.216949,355.306335 262.883942,353.091583 252.838440,353.988678 
	C241.036911,355.042664 231.078979,359.634705 223.524841,368.968048 
	C222.096069,370.733337 220.657730,372.490906 219.078323,374.564941 
	C211.531601,372.593750 204.106873,370.382690 196.735123,368.007141 
	C187.622650,365.070587 178.554199,361.997498 168.697891,358.728394 
	C189.995682,337.453430 210.900894,316.570648 231.923248,295.372803 
	C236.989746,296.852692 241.820786,299.147980 246.910019,300.351593 
	C264.241821,304.450745 284.973236,297.865326 294.915955,280.433350 
z"/>
<path fill="#66D4F1" opacity="1.000000" stroke="none" 
	d="
M255.125519,380.995605 
	C260.957581,381.145203 264.927216,383.659515 265.664948,387.908722 
	C266.548920,393.000580 263.456512,395.805847 259.345215,398.034515 
	C258.050720,398.736237 257.039276,400.209686 256.243622,401.536926 
	C253.461990,406.177094 249.256409,408.065674 244.988037,406.395203 
	C240.498337,404.638184 238.527817,400.271088 239.801407,394.900513 
	C241.739212,386.729034 246.797913,382.010345 255.125519,380.995605 
z"/>
<path fill="#000000" opacity="1.000000" stroke="none" 
	d="
M280.621246,153.910980 
	C301.956146,175.165237 322.921570,196.497208 344.218628,218.166611 
	C328.441223,223.324188 312.142090,228.652313 295.450562,233.931824 
	C287.811951,221.276611 276.750977,214.936157 262.486542,212.866180 
	C251.636185,211.291641 242.126251,214.284927 232.410202,218.974579 
	C215.903473,202.672180 199.780762,186.389053 183.624115,170.139679 
	C178.716324,165.203735 173.714767,160.361008 168.153030,154.881393 
	C185.014694,149.178238 201.126343,143.728775 217.600830,138.192291 
	C225.017914,148.968567 234.277496,156.624390 247.391418,159.133682 
	C259.027924,161.360275 269.975769,160.034149 280.621246,153.910980 
z"/>
<path fill="#66D4F1" opacity="1.000000" stroke="none" 
	d="
M246.668335,101.567696 
	C250.378708,100.253586 253.732635,98.453423 257.197113,98.206848 
	C261.683990,97.887512 264.590240,100.900505 265.512360,105.271408 
	C266.396454,109.461975 264.639679,112.546745 261.001007,114.863808 
	C259.186462,116.019302 257.470917,117.646408 256.309967,119.446709 
	C253.853287,123.256302 249.469040,125.146355 245.159897,123.754097 
	C241.271561,122.497803 238.019165,117.432510 239.570648,113.433655 
	C241.177597,109.291840 244.044968,105.639053 246.668335,101.567696 
z"/>
<path fill="#000000" opacity="1.000000" stroke="none" 
	d="
M301.046082,252.510376 
	C319.527802,246.019470 337.972382,239.850449 356.503296,233.952805 
	C358.220551,233.406265 361.130096,233.895050 362.391785,235.074066 
	C369.804199,242.000809 376.891632,249.275299 384.630432,256.971405 
	C376.747650,264.805023 369.066193,272.537323 361.202148,280.079224 
	C360.522278,280.731262 358.527985,280.451904 357.326294,280.054657 
	C339.933228,274.304626 322.573730,268.453064 305.195923,262.656647 
	C304.128479,262.300568 302.975220,262.201782 301.460632,261.934509 
	C301.050415,258.892609 301.041473,255.899521 301.046082,252.510376 
z"/>
<path fill="#66D4F1" opacity="1.000000" stroke="none" 
	d="
M243.187408,246.310608 
	C247.073898,243.926849 250.496323,241.215057 254.390747,239.839096 
	C259.321167,238.097107 263.505798,240.780136 265.318970,245.740082 
	C266.786224,249.753738 265.009918,253.408630 260.767670,256.152313 
	C258.954773,257.324829 257.294800,259.016632 256.116302,260.830475 
	C253.379486,265.042755 249.692352,266.789398 245.673615,265.291718 
	C240.721466,263.446198 238.408035,259.418457 239.773605,254.285889 
	C240.481812,251.624100 241.858368,249.140137 243.187408,246.310608 
z"/>
</svg>