<svg version="1.1" id="Layer_1" xmlns="http://www.w3.org/2000/svg" xmlns:xlink="http://www.w3.org/1999/xlink" x="0px" y="0px"
	 width="100%" viewBox="0 0 512 512" enable-background="new 0 0 512 512" xml:space="preserve">
<path fill="#010101" opacity="1.000000" stroke="none" 
	d="
M285.000000,513.000000 
	C190.023056,513.000000 95.546112,513.000000 1.034582,513.000000 
	C1.034582,342.398041 1.034582,171.796051 1.034582,1.097036 
	C171.560287,1.097036 342.120667,1.097036 512.840515,1.097036 
	C512.840515,171.666550 512.840515,342.333252 512.840515,513.000000 
	C437.129364,513.000000 361.314667,513.000000 285.000000,513.000000 
M30.000219,264.500000 
	C30.000219,296.944427 30.000219,329.388855 30.000219,361.925659 
	C181.532913,361.925659 332.581726,361.925659 483.999634,361.925659 
	C483.999634,360.906433 483.999634,360.106903 483.999634,359.307373 
	C483.999481,284.318604 484.016144,209.329834 483.979156,134.341110 
	C483.974213,124.323318 476.952026,114.476532 467.072083,112.210602 
	C460.871490,110.788506 454.200958,111.529800 447.776581,110.925201 
	C444.099426,110.579140 442.299927,111.871132 440.533173,115.124374 
	C424.647430,144.375839 390.100128,157.800690 358.671722,146.991974 
	C340.326324,140.682709 327.185516,128.371506 318.784760,111.305969 
	C312.231476,111.305969 305.964600,111.305969 299.930420,111.305969 
	C299.930420,140.011383 299.930420,168.409836 299.930420,197.010452 
	C302.282776,197.010452 304.279724,196.868378 306.249512,197.039291 
	C310.693390,197.424881 313.354309,200.155396 313.744415,204.361359 
	C314.095856,208.150269 312.068359,211.125305 308.237457,212.242462 
	C306.370392,212.786880 304.331207,212.933350 302.369812,212.934250 
	C230.880524,212.967331 159.391251,212.965759 87.901970,212.940826 
	C86.092499,212.940186 84.210136,212.884674 82.488632,212.402130 
	C78.670662,211.331970 76.792328,208.694077 76.850334,204.640503 
	C76.910049,200.467789 79.387962,198.326889 82.969078,197.154800 
	C84.144569,196.770065 85.473457,196.854004 86.947777,196.701294 
	C86.947777,178.625458 86.934181,160.809341 86.954620,142.993286 
	C86.962517,136.108383 89.647285,133.270767 96.537048,133.187256 
	C106.034225,133.072113 115.534416,133.094376 125.032242,133.178497 
	C132.161682,133.241638 135.005768,136.152069 135.013412,143.178207 
	C135.031387,159.675720 135.013550,176.173264 135.029663,192.670776 
	C135.031052,194.090485 135.176834,195.510071 135.264542,197.092239 
	C137.660324,196.966476 139.578278,196.865799 141.564224,196.761551 
	C141.564224,168.050308 141.564224,139.784195 141.564224,111.000015 
	C139.758881,111.000015 138.146423,111.000015 136.533966,111.000015 
	C109.371368,111.000046 82.208778,110.995560 55.046181,111.001915 
	C40.242138,111.005371 30.006393,121.222488 30.003387,136.019119 
	C29.994751,178.512741 30.000267,221.006378 30.000219,264.500000 
M443.499817,408.997375 
	C448.164978,408.997345 452.830170,409.003448 457.495331,408.996185 
	C475.707794,408.967834 486.213928,396.616211 483.475708,378.265747 
	C332.470917,378.265747 181.441879,378.265747 29.875546,378.265747 
	C30.066700,382.289734 29.710842,386.181671 30.522785,389.812408 
	C33.243698,401.979431 42.813854,408.991852 56.116806,408.992615 
	C184.911179,409.000214 313.705566,408.997284 443.499817,408.997375 
M229.529297,424.915771 
	C227.698807,424.915802 225.836823,425.132477 224.044205,424.871887 
	C219.960129,424.278198 217.861069,425.842621 216.523270,429.834839 
	C214.422562,436.103607 211.614609,442.133698 209.156006,448.284790 
	C207.655411,452.039001 206.248199,455.830536 204.718170,459.816010 
	C239.876053,459.816010 274.345459,459.816010 309.411072,459.816010 
	C305.128418,449.144226 300.907806,439.089508 297.103882,428.879578 
	C295.889252,425.619476 294.214508,424.812286 290.924255,424.837738 
	C270.790192,424.993805 250.654327,424.915802 229.529297,424.915771 
M228.987473,66.500000 
	C228.987473,54.416805 228.987473,42.333611 228.987473,30.245283 
	C223.062057,30.245283 217.803299,30.245283 212.341965,30.245283 
	C212.341965,85.838432 212.341965,141.182770 212.341965,196.657379 
	C217.983734,196.657379 223.356354,196.657379 228.987473,196.657379 
	C228.987473,153.374939 228.987473,110.437469 228.987473,66.500000 
M372.952698,58.499794 
	C372.952698,49.365253 372.952698,40.230713 372.952698,31.101767 
	C356.780457,31.136711 337.592834,46.788914 331.192383,64.821144 
	C325.082123,82.035866 329.411743,105.665070 340.421844,114.867668 
	C346.592010,108.114075 352.210693,100.721230 359.065033,94.745789 
	C370.016449,85.198586 375.648987,74.141556 372.952698,58.499794 
M382.385132,134.961090 
	C407.903076,133.907944 432.501251,111.889297 431.849060,90.204735 
	C416.601868,90.204735 401.335785,90.178970 386.070312,90.262917 
	C385.056183,90.268494 383.765503,90.849586 383.077087,91.598419 
	C372.648560,102.941986 362.299286,114.358414 351.693115,126.019836 
	C360.975952,132.199142 370.784393,134.995377 382.385132,134.961090 
M172.315842,69.875397 
	C167.401581,69.875397 162.487335,69.875397 157.578781,69.875397 
	C157.578781,112.631294 157.578781,154.659164 157.578781,196.747864 
	C163.161682,196.747864 168.409714,196.747864 173.813995,196.747864 
	C173.891586,195.870041 173.996841,195.234222 173.996979,194.598373 
	C174.006180,154.146286 174.012512,113.694199 173.977600,73.242142 
	C173.976654,72.158203 173.520630,71.074654 172.315842,69.875397 
M267.007263,128.500000 
	C267.007263,151.234528 267.007263,173.969055 267.007263,196.603394 
	C272.979950,196.603394 278.355255,196.603394 283.579468,196.603394 
	C283.579468,158.498642 283.579468,120.794647 283.579468,82.969391 
	C277.997864,82.969391 272.740143,82.969391 267.007263,82.969391 
	C267.007263,97.965477 267.007263,112.732735 267.007263,128.500000 
M230.500000,484.003540 
	C272.254089,484.003540 314.008179,484.003540 355.788086,484.003540 
	C355.788086,481.089783 355.788086,478.818481 355.788086,476.298889 
	C289.846832,476.298889 224.132629,476.298889 158.280518,476.298889 
	C158.280518,478.940125 158.280518,481.317902 158.280518,484.003540 
	C182.232819,484.003540 205.866409,484.003540 230.500000,484.003540 
M418.008392,45.490887 
	C409.917542,37.626953 400.617279,32.272663 389.062073,30.839092 
	C389.062073,45.769402 389.062073,59.984840 389.062073,74.357681 
	C403.550903,74.357681 417.724060,74.357681 432.359070,74.357681 
	C430.870972,63.017204 425.880646,53.939045 418.008392,45.490887 
M102.749489,186.481522 
	C102.749489,189.898865 102.749489,193.316223 102.749489,196.711029 
	C108.586067,196.711029 113.664886,196.711029 118.764404,196.711029 
	C118.764404,180.723724 118.764404,165.026474 118.764404,149.331009 
	C113.324417,149.331009 108.247208,149.331009 102.749352,149.331009 
	C102.749352,161.580505 102.749352,173.532806 102.749489,186.481522 
M251.106201,177.499649 
	C251.106201,155.415604 251.106201,133.331558 251.106201,111.198196 
	C248.795837,111.198196 247.036301,111.198196 245.228638,111.198196 
	C245.228638,139.906052 245.228638,168.413422 245.228638,197.072784 
	C247.367279,196.961746 249.126022,196.870422 251.106201,196.767609 
	C251.106201,190.445602 251.106201,184.472534 251.106201,177.499649 
M196.371140,165.500214 
	C196.371140,147.443787 196.371140,129.387375 196.371140,111.305649 
	C193.952484,111.305649 192.072693,111.305649 190.235077,111.305649 
	C190.235077,139.970169 190.235077,168.327606 190.235077,196.689758 
	C192.374039,196.689758 194.259567,196.689758 196.371140,196.689758 
	C196.371140,186.422424 196.371140,176.461334 196.371140,165.500214 
z"/>
<path fill="#DEF5FC" opacity="1.000000" stroke="none" 
	d="
M30.000219,264.000000 
	C30.000267,221.006378 29.994751,178.512741 30.003387,136.019119 
	C30.006393,121.222488 40.242138,111.005371 55.046181,111.001915 
	C82.208778,110.995560 109.371368,111.000046 136.533966,111.000015 
	C138.146423,111.000015 139.758881,111.000015 141.564224,111.000015 
	C141.564224,139.784195 141.564224,168.050308 141.564224,196.761551 
	C139.578278,196.865799 137.660324,196.966476 135.264542,197.092239 
	C135.176834,195.510071 135.031052,194.090485 135.029663,192.670776 
	C135.013550,176.173264 135.031387,159.675720 135.013412,143.178207 
	C135.005768,136.152069 132.161682,133.241638 125.032242,133.178497 
	C115.534416,133.094376 106.034225,133.072113 96.537048,133.187256 
	C89.647285,133.270767 86.962517,136.108383 86.954620,142.993286 
	C86.934181,160.809341 86.947777,178.625458 86.947777,196.701294 
	C85.473457,196.854004 84.144569,196.770065 82.969078,197.154800 
	C79.387962,198.326889 76.910049,200.467789 76.850334,204.640503 
	C76.792328,208.694077 78.670662,211.331970 82.488632,212.402130 
	C84.210136,212.884674 86.092499,212.940186 87.901970,212.940826 
	C159.391251,212.965759 230.880524,212.967331 302.369812,212.934250 
	C304.331207,212.933350 306.370392,212.786880 308.237457,212.242462 
	C312.068359,211.125305 314.095856,208.150269 313.744415,204.361359 
	C313.354309,200.155396 310.693390,197.424881 306.249512,197.039291 
	C304.279724,196.868378 302.282776,197.010452 299.930420,197.010452 
	C299.930420,168.409836 299.930420,140.011383 299.930420,111.305969 
	C305.964600,111.305969 312.231476,111.305969 318.784760,111.305969 
	C327.185516,128.371506 340.326324,140.682709 358.671722,146.991974 
	C390.100128,157.800690 424.647430,144.375839 440.533173,115.124374 
	C442.299927,111.871132 444.099426,110.579140 447.776581,110.925201 
	C454.200958,111.529800 460.871490,110.788506 467.072083,112.210602 
	C476.952026,114.476532 483.974213,124.323318 483.979156,134.341110 
	C484.016144,209.329834 483.999481,284.318604 483.999634,359.307373 
	C483.999634,360.106903 483.999634,360.906433 483.999634,361.925659 
	C332.581726,361.925659 181.532913,361.925659 30.000219,361.925659 
	C30.000219,329.388855 30.000219,296.944427 30.000219,264.000000 
M173.118317,291.479156 
	C171.147934,293.253296 169.177551,295.027435 167.157211,296.846558 
	C156.180496,292.835480 145.215881,288.689453 134.140472,284.864227 
	C130.695389,283.674316 129.342651,281.916840 129.015274,278.215729 
	C127.688431,263.214874 113.160202,252.974762 97.826866,255.901611 
	C83.056305,258.721069 73.523010,273.908600 77.526390,288.242432 
	C83.061829,308.061707 106.475830,314.607788 121.584236,300.649567 
	C122.756676,299.566376 125.046677,298.453918 126.292000,298.882233 
	C137.379883,302.695740 148.374298,306.788757 159.317108,311.004791 
	C160.466614,311.447693 161.749710,313.143890 161.884872,314.377594 
	C163.686554,330.821136 175.874573,340.959900 191.880173,339.126862 
	C206.920395,337.404388 216.201965,324.173035 214.205338,307.730255 
	C214.004028,306.072327 215.103287,303.526520 216.444489,302.524628 
	C229.220703,292.980499 242.136185,283.619598 255.156921,274.411438 
	C256.380188,273.546356 258.953400,273.396484 260.294983,274.087982 
	C268.369354,278.250000 276.394836,278.462158 284.778931,275.111450 
	C286.171417,274.554962 288.690521,274.928162 289.820435,275.891022 
	C303.887268,287.878357 317.771515,300.079712 331.765656,312.153076 
	C333.775513,313.887054 334.127014,315.363403 333.401520,318.108673 
	C328.837036,335.381165 342.273712,352.730774 359.416473,351.664124 
	C370.813049,350.955017 379.359009,345.444611 383.409210,334.474487 
	C387.263489,324.035187 385.248505,314.373962 377.306152,306.535889 
	C369.047424,298.385529 359.077271,296.652863 348.417389,301.115814 
	C345.330719,302.408081 343.621094,301.711700 341.438873,299.794067 
	C328.304840,288.252472 315.149872,276.732697 301.854218,265.378601 
	C299.068542,262.999756 297.995331,260.928253 299.029449,257.101959 
	C301.996216,246.124496 298.157562,237.030014 289.517853,230.206879 
	C281.256958,223.682938 271.738831,222.868637 262.325500,227.289749 
	C252.270111,232.012390 246.174454,240.659241 247.429916,251.561508 
	C248.321991,259.308105 245.430740,262.721497 239.805374,265.911072 
	C238.083466,266.887390 236.593811,268.269135 234.979187,269.439575 
	C224.667465,276.914337 214.350555,284.381958 204.200577,291.732269 
	C193.826385,285.406219 183.817566,285.001648 173.118317,291.479156 
M397.499939,199.850082 
	C407.489044,199.850037 417.478333,199.889603 427.467133,199.835678 
	C433.848083,199.801224 437.355896,196.899719 437.376282,191.829514 
	C437.396576,186.784836 433.900696,183.978775 427.505646,183.974091 
	C410.191162,183.961380 392.875916,184.050125 375.563110,183.879074 
	C373.075500,183.854477 370.342865,183.078491 368.162140,181.863297 
	C357.313293,175.817886 346.632721,169.471481 335.848083,163.309555 
	C330.705414,160.371216 326.002350,161.243927 323.671387,165.369553 
	C321.297913,169.570465 322.873077,174.067245 327.827972,176.977127 
	C332.537292,179.742828 337.626678,181.982849 341.969818,185.228912 
	C358.258331,197.403000 376.295868,202.535248 397.499939,199.850082 
M370.835724,249.646591 
	C389.132690,249.646515 407.429718,249.662369 425.726593,249.623428 
	C427.705994,249.619217 429.736053,249.520081 431.653320,249.077911 
	C435.890411,248.100739 437.624420,245.047150 437.293579,240.946228 
	C436.958618,236.794266 434.590851,234.016922 430.309143,233.992859 
	C409.185394,233.874130 388.060364,233.878998 366.936462,233.981628 
	C362.795715,234.001724 359.956238,237.299911 359.871735,241.418930 
	C359.760681,246.830566 362.489868,249.063202 370.835724,249.646591 
M422.448456,208.942123 
	C414.980927,208.942184 407.513336,208.930771 400.045837,208.945801 
	C393.630402,208.958725 390.085815,211.668045 389.993073,216.588211 
	C389.898041,221.630157 393.702240,224.710968 400.291840,224.753357 
	C409.252533,224.810989 418.214081,224.800034 427.174683,224.737213 
	C428.809052,224.725754 430.507324,224.541840 432.060730,224.063126 
	C436.181976,222.793030 437.727325,219.714294 437.233917,215.614639 
	C436.755951,211.643524 434.283142,209.430984 430.391266,209.015366 
	C428.093292,208.769958 425.749664,208.952194 422.448456,208.942123 
M380.983459,214.939651 
	C378.119110,209.139725 368.364441,206.582321 363.206116,210.278946 
	C359.675781,212.808884 358.823608,217.811279 361.325317,221.319672 
	C363.614624,224.530182 369.644836,225.780655 375.146454,224.260681 
	C379.518036,223.052917 381.308167,220.128586 380.983459,214.939651 
z"/>
<path fill="#8DB9C4" opacity="1.000000" stroke="none" 
	d="
M442.999878,408.997375 
	C313.705566,408.997284 184.911179,409.000214 56.116806,408.992615 
	C42.813854,408.991852 33.243698,401.979431 30.522785,389.812408 
	C29.710842,386.181671 30.066700,382.289734 29.875546,378.265747 
	C181.441879,378.265747 332.470917,378.265747 483.475708,378.265747 
	C486.213928,396.616211 475.707794,408.967834 457.495331,408.996185 
	C452.830170,409.003448 448.164978,408.997345 442.999878,408.997375 
M97.492073,401.295013 
	C100.816277,401.293701 104.141777,401.351379 107.464394,401.278107 
	C113.315285,401.149109 117.012596,397.958160 116.833633,393.291748 
	C116.657845,388.708191 113.193207,385.836945 107.507477,385.816193 
	C93.213531,385.764069 78.919136,385.764557 64.625183,385.815216 
	C58.870770,385.835632 55.492905,388.619293 55.297375,393.250763 
	C55.096279,398.014038 58.668568,401.218719 64.582474,401.266998 
	C75.219269,401.353851 85.857269,401.293793 97.492073,401.295013 
M131.754257,401.293030 
	C133.740067,401.253021 135.738739,401.342133 137.709015,401.146118 
	C141.787949,400.740295 144.831940,397.493134 144.914597,393.652283 
	C145.001221,389.627991 141.796707,386.220520 137.484131,385.879913 
	C135.672470,385.736816 133.842178,385.766602 132.022141,385.804169 
	C126.646980,385.915131 123.329292,388.562744 123.004738,392.944244 
	C122.675003,397.395538 125.482674,400.361176 131.754257,401.293030 
z"/>
<path fill="#6B96A5" opacity="1.000000" stroke="none" 
	d="
M230.024170,424.915771 
	C250.654327,424.915802 270.790192,424.993805 290.924255,424.837738 
	C294.214508,424.812286 295.889252,425.619476 297.103882,428.879578 
	C300.907806,439.089508 305.128418,449.144226 309.411072,459.816010 
	C274.345459,459.816010 239.876053,459.816010 204.718170,459.816010 
	C206.248199,455.830536 207.655411,452.039001 209.156006,448.284790 
	C211.614609,442.133698 214.422562,436.103607 216.523270,429.834839 
	C217.861069,425.842621 219.960129,424.278198 224.044205,424.871887 
	C225.836823,425.132477 227.698807,424.915802 230.024170,424.915771 
z"/>
<path fill="#2FE3A1" opacity="1.000000" stroke="none" 
	d="
M228.987473,67.000000 
	C228.987473,110.437469 228.987473,153.374939 228.987473,196.657379 
	C223.356354,196.657379 217.983734,196.657379 212.341965,196.657379 
	C212.341965,141.182770 212.341965,85.838432 212.341965,30.245283 
	C217.803299,30.245283 223.062057,30.245283 228.987473,30.245283 
	C228.987473,42.333611 228.987473,54.416805 228.987473,67.000000 
z"/>
<path fill="#01CEF9" opacity="1.000000" stroke="none" 
	d="
M372.952698,58.999714 
	C375.648987,74.141556 370.016449,85.198586 359.065033,94.745789 
	C352.210693,100.721230 346.592010,108.114075 340.421844,114.867668 
	C329.411743,105.665070 325.082123,82.035866 331.192383,64.821144 
	C337.592834,46.788914 356.780457,31.136711 372.952698,31.101767 
	C372.952698,40.230713 372.952698,49.365253 372.952698,58.999714 
z"/>
<path fill="#F6D440" opacity="1.000000" stroke="none" 
	d="
M381.920349,134.970215 
	C370.784393,134.995377 360.975952,132.199142 351.693115,126.019836 
	C362.299286,114.358414 372.648560,102.941986 383.077087,91.598419 
	C383.765503,90.849586 385.056183,90.268494 386.070312,90.262917 
	C401.335785,90.178970 416.601868,90.204735 431.849060,90.204735 
	C432.501251,111.889297 407.903076,133.907944 381.920349,134.970215 
z"/>
<path fill="#01CCF6" opacity="1.000000" stroke="none" 
	d="
M172.796326,69.933159 
	C173.520630,71.074654 173.976654,72.158203 173.977600,73.242142 
	C174.012512,113.694199 174.006180,154.146286 173.996979,194.598373 
	C173.996841,195.234222 173.891586,195.870041 173.813995,196.747864 
	C168.409714,196.747864 163.161682,196.747864 157.578781,196.747864 
	C157.578781,154.659164 157.578781,112.631294 157.578781,69.875397 
	C162.487335,69.875397 167.401581,69.875397 172.796326,69.933159 
z"/>
<path fill="#F6D340" opacity="1.000000" stroke="none" 
	d="
M267.007263,128.000000 
	C267.007263,112.732735 267.007263,97.965477 267.007263,82.969391 
	C272.740143,82.969391 277.997864,82.969391 283.579468,82.969391 
	C283.579468,120.794647 283.579468,158.498642 283.579468,196.603394 
	C278.355255,196.603394 272.979950,196.603394 267.007263,196.603394 
	C267.007263,173.969055 267.007263,151.234528 267.007263,128.000000 
z"/>
<path fill="#7B9FAF" opacity="1.000000" stroke="none" 
	d="
M230.000000,484.003540 
	C205.866409,484.003540 182.232819,484.003540 158.280518,484.003540 
	C158.280518,481.317902 158.280518,478.940125 158.280518,476.298889 
	C224.132629,476.298889 289.846832,476.298889 355.788086,476.298889 
	C355.788086,478.818481 355.788086,481.089783 355.788086,484.003540 
	C314.008179,484.003540 272.254089,484.003540 230.000000,484.003540 
z"/>
<path fill="#F0613F" opacity="1.000000" stroke="none" 
	d="
M418.259552,45.744728 
	C425.880646,53.939045 430.870972,63.017204 432.359070,74.357681 
	C417.724060,74.357681 403.550903,74.357681 389.062073,74.357681 
	C389.062073,59.984840 389.062073,45.769402 389.062073,30.839092 
	C400.617279,32.272663 409.917542,37.626953 418.259552,45.744728 
z"/>
<path fill="#F46240" opacity="1.000000" stroke="none" 
	d="
M102.749420,185.983307 
	C102.749352,173.532806 102.749352,161.580505 102.749352,149.331009 
	C108.247208,149.331009 113.324417,149.331009 118.764404,149.331009 
	C118.764404,165.026474 118.764404,180.723724 118.764404,196.711029 
	C113.664886,196.711029 108.586067,196.711029 102.749489,196.711029 
	C102.749489,193.316223 102.749489,189.898865 102.749420,185.983307 
z"/>
<path fill="#DFF6FD" opacity="1.000000" stroke="none" 
	d="
M251.106201,177.999557 
	C251.106201,184.472534 251.106201,190.445602 251.106201,196.767609 
	C249.126022,196.870422 247.367279,196.961746 245.228638,197.072784 
	C245.228638,168.413422 245.228638,139.906052 245.228638,111.198196 
	C247.036301,111.198196 248.795837,111.198196 251.106201,111.198196 
	C251.106201,133.331558 251.106201,155.415604 251.106201,177.999557 
z"/>
<path fill="#DFF6FD" opacity="1.000000" stroke="none" 
	d="
M196.371140,166.000214 
	C196.371140,176.461334 196.371140,186.422424 196.371140,196.689758 
	C194.259567,196.689758 192.374039,196.689758 190.235077,196.689758 
	C190.235077,168.327606 190.235077,139.970169 190.235077,111.305649 
	C192.072693,111.305649 193.952484,111.305649 196.371140,111.305649 
	C196.371140,129.387375 196.371140,147.443787 196.371140,166.000214 
z"/>
<path fill="#020202" opacity="1.000000" stroke="none" 
	d="
M173.419891,291.267212 
	C183.817566,285.001648 193.826385,285.406219 204.200577,291.732269 
	C214.350555,284.381958 224.667465,276.914337 234.979187,269.439575 
	C236.593811,268.269135 238.083466,266.887390 239.805374,265.911072 
	C245.430740,262.721497 248.321991,259.308105 247.429916,251.561508 
	C246.174454,240.659241 252.270111,232.012390 262.325500,227.289749 
	C271.738831,222.868637 281.256958,223.682938 289.517853,230.206879 
	C298.157562,237.030014 301.996216,246.124496 299.029449,257.101959 
	C297.995331,260.928253 299.068542,262.999756 301.854218,265.378601 
	C315.149872,276.732697 328.304840,288.252472 341.438873,299.794067 
	C343.621094,301.711700 345.330719,302.408081 348.417389,301.115814 
	C359.077271,296.652863 369.047424,298.385529 377.306152,306.535889 
	C385.248505,314.373962 387.263489,324.035187 383.409210,334.474487 
	C379.359009,345.444611 370.813049,350.955017 359.416473,351.664124 
	C342.273712,352.730774 328.837036,335.381165 333.401520,318.108673 
	C334.127014,315.363403 333.775513,313.887054 331.765656,312.153076 
	C317.771515,300.079712 303.887268,287.878357 289.820435,275.891022 
	C288.690521,274.928162 286.171417,274.554962 284.778931,275.111450 
	C276.394836,278.462158 268.369354,278.250000 260.294983,274.087982 
	C258.953400,273.396484 256.380188,273.546356 255.156921,274.411438 
	C242.136185,283.619598 229.220703,292.980499 216.444489,302.524628 
	C215.103287,303.526520 214.004028,306.072327 214.205338,307.730255 
	C216.201965,324.173035 206.920395,337.404388 191.880173,339.126862 
	C175.874573,340.959900 163.686554,330.821136 161.884872,314.377594 
	C161.749710,313.143890 160.466614,311.447693 159.317108,311.004791 
	C148.374298,306.788757 137.379883,302.695740 126.292000,298.882233 
	C125.046677,298.453918 122.756676,299.566376 121.584236,300.649567 
	C106.475830,314.607788 83.061829,308.061707 77.526390,288.242432 
	C73.523010,273.908600 83.056305,258.721069 97.826866,255.901611 
	C113.160202,252.974762 127.688431,263.214874 129.015274,278.215729 
	C129.342651,281.916840 130.695389,283.674316 134.140472,284.864227 
	C145.215881,288.689453 156.180496,292.835480 167.157211,296.846558 
	C169.177551,295.027435 171.147934,293.253296 173.419891,291.267212 
M94.206223,275.865295 
	C91.504440,281.855774 92.347824,286.765320 96.648392,290.081665 
	C100.416473,292.987396 106.338219,292.828430 109.922020,289.725342 
	C114.484482,285.774872 114.987762,279.187408 111.072151,274.671204 
	C106.691307,269.618408 100.329514,269.843018 94.206223,275.865295 
M178.245880,316.661102 
	C179.173187,318.008636 179.925720,319.529816 181.059998,320.671783 
	C184.728012,324.364685 189.773422,324.782104 194.174225,321.944641 
	C198.157913,319.376129 199.922623,314.221344 198.325058,309.820007 
	C196.510132,304.819885 192.337387,302.117432 187.241837,302.642090 
	C180.771179,303.308258 177.643829,307.808380 178.245880,316.661102 
M268.728271,241.761765 
	C263.126770,245.552216 261.458923,250.548477 264.051483,255.771729 
	C266.318817,260.339813 271.416504,262.694458 276.094025,261.334259 
	C281.783203,259.679901 284.829193,254.988586 283.969360,249.205078 
	C283.016083,242.793060 277.473572,239.782639 268.728271,241.761765 
M348.118256,326.241486 
	C348.402466,327.192230 348.597900,328.180939 348.985535,329.087463 
	C351.222717,334.319153 356.456390,336.950897 361.469055,335.412628 
	C367.243835,333.640472 370.226959,328.581085 368.999878,322.640320 
	C367.936798,317.493469 363.136688,314.286438 357.368500,314.869232 
	C352.246613,315.386719 349.190979,318.867279 348.118256,326.241486 
z"/>
<path fill="#030304" opacity="1.000000" stroke="none" 
	d="
M396.999939,199.850082 
	C376.295868,202.535248 358.258331,197.403000 341.969818,185.228912 
	C337.626678,181.982849 332.537292,179.742828 327.827972,176.977127 
	C322.873077,174.067245 321.297913,169.570465 323.671387,165.369553 
	C326.002350,161.243927 330.705414,160.371216 335.848083,163.309555 
	C346.632721,169.471481 357.313293,175.817886 368.162140,181.863297 
	C370.342865,183.078491 373.075500,183.854477 375.563110,183.879074 
	C392.875916,184.050125 410.191162,183.961380 427.505646,183.974091 
	C433.900696,183.978775 437.396576,186.784836 437.376282,191.829514 
	C437.355896,196.899719 433.848083,199.801224 427.467133,199.835678 
	C417.478333,199.889603 407.489044,199.850037 396.999939,199.850082 
z"/>
<path fill="#060606" opacity="1.000000" stroke="none" 
	d="
M370.382263,249.646393 
	C362.489868,249.063202 359.760681,246.830566 359.871735,241.418930 
	C359.956238,237.299911 362.795715,234.001724 366.936462,233.981628 
	C388.060364,233.878998 409.185394,233.874130 430.309143,233.992859 
	C434.590851,234.016922 436.958618,236.794266 437.293579,240.946228 
	C437.624420,245.047150 435.890411,248.100739 431.653320,249.077911 
	C429.736053,249.520081 427.705994,249.619217 425.726593,249.623428 
	C407.429718,249.662369 389.132690,249.646515 370.382263,249.646393 
z"/>
<path fill="#050505" opacity="1.000000" stroke="none" 
	d="
M422.937500,208.942139 
	C425.749664,208.952194 428.093292,208.769958 430.391266,209.015366 
	C434.283142,209.430984 436.755951,211.643524 437.233917,215.614639 
	C437.727325,219.714294 436.181976,222.793030 432.060730,224.063126 
	C430.507324,224.541840 428.809052,224.725754 427.174683,224.737213 
	C418.214081,224.800034 409.252533,224.810989 400.291840,224.753357 
	C393.702240,224.710968 389.898041,221.630157 389.993073,216.588211 
	C390.085815,211.668045 393.630402,208.958725 400.045837,208.945801 
	C407.513336,208.930771 414.980927,208.942184 422.937500,208.942139 
z"/>
<path fill="#040405" opacity="1.000000" stroke="none" 
	d="
M381.007599,215.341339 
	C381.308167,220.128586 379.518036,223.052917 375.146454,224.260681 
	C369.644836,225.780655 363.614624,224.530182 361.325317,221.319672 
	C358.823608,217.811279 359.675781,212.808884 363.206116,210.278946 
	C368.364441,206.582321 378.119110,209.139725 381.007599,215.341339 
z"/>
<path fill="#010101" opacity="1.000000" stroke="none" 
	d="
M96.993423,401.295044 
	C85.857269,401.293793 75.219269,401.353851 64.582474,401.266998 
	C58.668568,401.218719 55.096279,398.014038 55.297375,393.250763 
	C55.492905,388.619293 58.870770,385.835632 64.625183,385.815216 
	C78.919136,385.764557 93.213531,385.764069 107.507477,385.816193 
	C113.193207,385.836945 116.657845,388.708191 116.833633,393.291748 
	C117.012596,397.958160 113.315285,401.149109 107.464394,401.278107 
	C104.141777,401.351379 100.816277,401.293701 96.993423,401.295044 
z"/>
<path fill="#020203" opacity="1.000000" stroke="none" 
	d="
M131.311798,401.272217 
	C125.482674,400.361176 122.675003,397.395538 123.004738,392.944244 
	C123.329292,388.562744 126.646980,385.915131 132.022141,385.804169 
	C133.842178,385.766602 135.672470,385.736816 137.484131,385.879913 
	C141.796707,386.220520 145.001221,389.627991 144.914597,393.652283 
	C144.831940,397.493134 141.787949,400.740295 137.709015,401.146118 
	C135.738739,401.342133 133.740067,401.253021 131.311798,401.272217 
z"/>
<path fill="#01CCF7" opacity="1.000000" stroke="none" 
	d="
M94.426086,275.558228 
	C100.329514,269.843018 106.691307,269.618408 111.072151,274.671204 
	C114.987762,279.187408 114.484482,285.774872 109.922020,289.725342 
	C106.338219,292.828430 100.416473,292.987396 96.648392,290.081665 
	C92.347824,286.765320 91.504440,281.855774 94.426086,275.558228 
z"/>
<path fill="#F4D240" opacity="1.000000" stroke="none" 
	d="
M178.149475,316.262665 
	C177.643829,307.808380 180.771179,303.308258 187.241837,302.642090 
	C192.337387,302.117432 196.510132,304.819885 198.325058,309.820007 
	C199.922623,314.221344 198.157913,319.376129 194.174225,321.944641 
	C189.773422,324.782104 184.728012,324.364685 181.059998,320.671783 
	C179.925720,319.529816 179.173187,318.008636 178.149475,316.262665 
z"/>
<path fill="#2FE1A0" opacity="1.000000" stroke="none" 
	d="
M269.060944,241.525009 
	C277.473572,239.782639 283.016083,242.793060 283.969360,249.205078 
	C284.829193,254.988586 281.783203,259.679901 276.094025,261.334259 
	C271.416504,262.694458 266.318817,260.339813 264.051483,255.771729 
	C261.458923,250.548477 263.126770,245.552216 269.060944,241.525009 
z"/>
<path fill="#F0613F" opacity="1.000000" stroke="none" 
	d="
M348.095917,325.849060 
	C349.190979,318.867279 352.246613,315.386719 357.368500,314.869232 
	C363.136688,314.286438 367.936798,317.493469 368.999878,322.640320 
	C370.226959,328.581085 367.243835,333.640472 361.469055,335.412628 
	C356.456390,336.950897 351.222717,334.319153 348.985535,329.087463 
	C348.597900,328.180939 348.402466,327.192230 348.095917,325.849060 
z"/>
</svg>